<svg id="Layer_1" data-name="Layer 1" xmlns="http://www.w3.org/2000/svg" viewBox="0 0 450 146.66"><defs><style>.cls-1{fill:#fff;}.cls-2{fill:#1d3b6d;}</style></defs><title>meepsh</title><path class="cls-1" d="M154.46,31.79l-5.09,8.3a13.56,13.56,0,0,0-5.14-1.32q-11.68,0-16.26,16.44-1.81,6.48-1.81,26.18V107h-10V31.16h10V42.31q8.83-13.11,19.68-13.1A17.75,17.75,0,0,1,154.46,31.79Z"/><path class="cls-1" d="M196.63,39.6H181.16V107h-9.9V39.6H157.94V31.16h13.32V3h9.9V31.16h15.48Z"/><path class="cls-1" d="M270.15,107h-9.83V70.87q0-13.1-1-17.48-3.61-15.11-19-15.11a24,24,0,0,0-15.81,5.82,27.22,27.22,0,0,0-9.21,14.52q-1.39,5.43-1.39,20.62V107H204V1.88h9.83V44.76q11.77-15.54,28.41-15.55a27.29,27.29,0,0,1,14.93,4.22A25.18,25.18,0,0,1,267,45q3.17,7.39,3.17,22.94Z"/><path class="cls-1" d="M359.29,69.3q0,16.73-11.36,28.2T319.83,109q-16.73,0-28.13-11.43T280.3,69.3A39.42,39.42,0,0,1,290.76,42q11.5-12.76,29.07-12.76t29,12.69A39.51,39.51,0,0,1,359.29,69.3Zm-10,.21a30.49,30.49,0,0,0-8.52-21.59,28.76,28.76,0,0,0-41.94,0,30.48,30.48,0,0,0-8.52,21.59,31.09,31.09,0,0,0,3.82,15.1,28,28,0,0,0,10.78,11.13,29.51,29.51,0,0,0,14.88,3.89q17.25,0,25.52-14.82A30.87,30.87,0,0,0,349.32,69.5Z"/><path class="cls-2" d="M422.28,60.86H390.77V107H371.39V4.46h50.89v19H390.77V42.18h31.51Z"/><path class="cls-2" d="M450,12.38A11.89,11.89,0,0,1,446.49,21,11.46,11.46,0,0,1,438,24.61,11.64,11.64,0,0,1,429.28,21a12.24,12.24,0,0,1-3.54-8.86,11.65,11.65,0,0,1,3.54-8.55,12.08,12.08,0,0,1,17.17.07A12.06,12.06,0,0,1,450,12.38ZM447.49,107H428.32V31.16h19.17Z"/><path class="cls-1" d="M13.68,72.85A44.25,44.25,0,0,1,10.6,56.19a44.29,44.29,0,0,1,5.72-22.34A42.63,42.63,0,0,1,32.16,17.91,42.28,42.28,0,0,1,53.83,12a43.54,43.54,0,0,1,21.95,5.92Q97.46,30.37,97.46,55.7a45.7,45.7,0,0,1-2.77,15.95L103.91,77A54.74,54.74,0,0,0,108,55.7q0-23.07-15.82-38.55Q76.47,1.88,53.33,1.88A52.67,52.67,0,0,0,7,28.93,55,55,0,0,0,0,56.19a53.26,53.26,0,0,0,4.5,22Z"/><path class="cls-2" d="M89.08,82.15a41,41,0,0,1-13.2,11.69,44.26,44.26,0,0,1-22.05,5.71q-18.28,0-30.76-12.6a47,47,0,0,1-3.37-3.84l-9.07,5.23a55.74,55.74,0,0,0,5.12,5.84q15.75,15.4,38.41,15.4T92.41,94A56.58,56.58,0,0,0,98,87.32Z"/><rect class="cls-1" x="25.59" y="64.22" width="14.65" height="13.93"/><rect class="cls-1" x="47.01" y="47.56" width="14.65" height="30.59"/><rect class="cls-1" x="68.43" y="33.29" width="14.65" height="44.87"/><path class="cls-1" d="M17.21,135.67a5.18,5.18,0,0,1-1.76,4,5.79,5.79,0,0,1-4.07,1.58q-3.83,0-6.21-4.35l1.75-1q1.85,3.38,4.27,3.38a3.57,3.57,0,0,0,3.33-1.77,3.34,3.34,0,0,0,.48-1.72,3.47,3.47,0,0,0-.7-2,15.6,15.6,0,0,0-3.39-3.14,17.47,17.47,0,0,1-3.35-3,5.17,5.17,0,0,1-1.09-3.15,4.45,4.45,0,0,1,2.46-4.19,5.2,5.2,0,0,1,2.53-.63q2.94,0,5.4,3.37l-1.68,1.27a10,10,0,0,0-1.6-1.76,3.43,3.43,0,0,0-2.17-.78,2.87,2.87,0,0,0-2,.71,2.39,2.39,0,0,0-.84,1.9A3.78,3.78,0,0,0,9.88,127q.38.36,2.66,2.05a18.43,18.43,0,0,1,3.14,2.8A6,6,0,0,1,17.21,135.67Z"/><path class="cls-1" d="M36.62,127.18h-3.1V140.7h-2V127.18H28.86v-1.69h2.67v-5.65h2v5.65h3.1Z"/><path class="cls-1" d="M63.29,140.7H61.34v-2.62a7.61,7.61,0,0,1-6.11,3,7.37,7.37,0,0,1-5.56-2.38,7.89,7.89,0,0,1-2.24-5.66,7.75,7.75,0,0,1,2.29-5.62,7.49,7.49,0,0,1,5.57-2.34,7.11,7.11,0,0,1,6,3.19v-2.8h1.95Zm-1.82-7.52a6.12,6.12,0,0,0-1.71-4.4,5.7,5.7,0,0,0-4.3-1.79,5.6,5.6,0,0,0-5.2,3.06,6.15,6.15,0,0,0,0,6.15,6,6,0,0,0,2.21,2.27,5.78,5.78,0,0,0,3,.82,6.11,6.11,0,0,0,3-.81,5.66,5.66,0,0,0,2.21-2.19A6.26,6.26,0,0,0,61.47,133.18Z"/><path class="cls-1" d="M83.23,125.61l-1,1.66a2.72,2.72,0,0,0-1-.26q-2.34,0-3.26,3.3a24,24,0,0,0-.36,5.25v5.14h-2V125.48h2v2.24q1.77-2.63,3.95-2.63A3.54,3.54,0,0,1,83.23,125.61Z"/><path class="cls-1" d="M100.29,127.18h-3.1V140.7h-2V127.18H92.53v-1.69H95.2v-5.65h2v5.65h3.1Z"/><path class="cls-1" d="M114.08,120.83a1.53,1.53,0,0,1-.47,1.14,1.57,1.57,0,0,1-1.14.47,1.62,1.62,0,0,1-1.6-1.6,1.58,1.58,0,0,1,.47-1.14,1.54,1.54,0,0,1,1.13-.47,1.62,1.62,0,0,1,1.62,1.61Zm-.6,19.87h-2V125.48h2Z"/><path class="cls-1" d="M139.39,140.7h-2v-7.25a18,18,0,0,0-.22-3.51,3.58,3.58,0,0,0-3.82-3,4.81,4.81,0,0,0-3.17,1.17,5.46,5.46,0,0,0-1.85,2.91,20.11,20.11,0,0,0-.28,4.13v5.58h-2V125.48h2v2.73a6.92,6.92,0,0,1,5.7-3.12,5.47,5.47,0,0,1,3,.85,5,5,0,0,1,2,2.33,12.39,12.39,0,0,1,.64,4.59Z"/><path class="cls-1" d="M167.25,137.61a14.51,14.51,0,0,1-.56,4.69,6.16,6.16,0,0,1-2.88,3.36,8.93,8.93,0,0,1-4.36,1,8.45,8.45,0,0,1-6.06-2,8.88,8.88,0,0,1-1.8-2.73h2.11a6,6,0,0,0,5.64,2.95q4,0,5.34-2.62a8.37,8.37,0,0,0,.59-3.64v-.78a7.36,7.36,0,0,1-6.08,2.89,7.93,7.93,0,0,1-3.92-1,7.33,7.33,0,0,1-2.86-2.8,7.79,7.79,0,0,1,12.86-8.74v-2.64h2ZM165.36,133a5.53,5.53,0,0,0-2.89-5.19,6,6,0,0,0-3-.78,6.24,6.24,0,0,0-3.08.8,5.77,5.77,0,0,0-2.23,2.22,6.08,6.08,0,0,0-.81,3.07,5.44,5.44,0,0,0,1.73,4.19,6,6,0,0,0,4.28,1.58,5.92,5.92,0,0,0,4.32-1.6A5.68,5.68,0,0,0,165.36,133Z"/><path class="cls-1" d="M220.77,140.7h-2l-2-14.73-7.29,14.73h-.52l-7.37-14.84-2,14.84h-2l2.92-20.57h.35L209.19,137l8.28-16.89h.35Z"/><path class="cls-1" d="M248.21,133.13a7.73,7.73,0,0,1-2.28,5.66,8.07,8.07,0,0,1-11.28,0,7.7,7.7,0,0,1-2.29-5.66,7.92,7.92,0,0,1,2.1-5.48,7.92,7.92,0,0,1,11.65,0A7.92,7.92,0,0,1,248.21,133.13Zm-2,0a6.12,6.12,0,0,0-1.71-4.33,5.77,5.77,0,0,0-8.41,0,6.12,6.12,0,0,0-1.71,4.33,6.22,6.22,0,0,0,.77,3,5.63,5.63,0,0,0,2.16,2.23,5.93,5.93,0,0,0,3,.78,5.49,5.49,0,0,0,5.12-3A6.21,6.21,0,0,0,246.21,133.18Z"/><path class="cls-1" d="M267.39,125.61l-1,1.66a2.69,2.69,0,0,0-1-.26q-2.34,0-3.26,3.3a23.81,23.81,0,0,0-.36,5.25v5.14h-2V125.48h2v2.24q1.77-2.63,3.95-2.63A3.56,3.56,0,0,1,267.39,125.61Z"/><path class="cls-1" d="M292.61,133.25H278.95a6.33,6.33,0,0,0,1.59,4.25,5.34,5.34,0,0,0,4.14,1.79,6,6,0,0,0,4.12-1.48,9.1,9.1,0,0,0,1.66-2.16l1.65.87a8,8,0,0,1-4.26,4.06,8.23,8.23,0,0,1-3,.52,7.65,7.65,0,0,1-5.67-2.26,7.76,7.76,0,0,1-2.25-5.69A8.14,8.14,0,0,1,278.7,128a7.26,7.26,0,0,1,6-2.88,7.5,7.5,0,0,1,6.21,3A8.3,8.3,0,0,1,292.61,133.25Zm-2.14-1.71a5.63,5.63,0,0,0-3.12-4,6.11,6.11,0,0,0-2.59-.57,5.58,5.58,0,0,0-3.85,1.43,6.44,6.44,0,0,0-1.78,3.13Z"/><path class="cls-1" d="M333.23,135.67a5.18,5.18,0,0,1-1.76,4,5.78,5.78,0,0,1-4.07,1.58q-3.83,0-6.21-4.35l1.75-1q1.85,3.38,4.27,3.38a3.58,3.58,0,0,0,3.34-1.77,3.36,3.36,0,0,0,.47-1.72,3.46,3.46,0,0,0-.7-2,15.6,15.6,0,0,0-3.39-3.14,17.5,17.5,0,0,1-3.35-3,5.16,5.16,0,0,1-1.09-3.15,4.45,4.45,0,0,1,2.46-4.19,5.2,5.2,0,0,1,2.53-.63q2.94,0,5.4,3.37l-1.68,1.27a10,10,0,0,0-1.6-1.76,3.44,3.44,0,0,0-2.17-.78,2.87,2.87,0,0,0-2,.71,2.4,2.4,0,0,0-.84,1.9,3.79,3.79,0,0,0,1.3,2.68q.38.36,2.66,2.05a18.44,18.44,0,0,1,3.14,2.8A6,6,0,0,1,333.23,135.67Z"/><path class="cls-1" d="M368.63,140.7h-2v-8.3a14,14,0,0,0-.17-2.67,3.29,3.29,0,0,0-1.37-2.17,3.61,3.61,0,0,0-2-.56,4.39,4.39,0,0,0-2.63.84,4.86,4.86,0,0,0-1.71,2.24,14.16,14.16,0,0,0-.54,4.66v6h-2v-7.78a19.91,19.91,0,0,0-.14-2.9,3.55,3.55,0,0,0-1.4-2.42,3.48,3.48,0,0,0-2-.59,4.36,4.36,0,0,0-2.6.85,4.89,4.89,0,0,0-1.68,2.17,11.75,11.75,0,0,0-.57,4.23v6.44h-2V125.48h2v2.63a6.24,6.24,0,0,1,5.22-3,4.7,4.7,0,0,1,3.72,1.58,6.2,6.2,0,0,1,1.09,2.07q2-3.65,5.62-3.65a4.57,4.57,0,0,1,4.59,3,11.89,11.89,0,0,1,.59,4.28Z"/><path class="cls-1" d="M383.6,120.83a1.54,1.54,0,0,1-.47,1.14,1.58,1.58,0,0,1-1.14.47,1.62,1.62,0,0,1-1.6-1.6,1.58,1.58,0,0,1,.47-1.14,1.53,1.53,0,0,1,1.13-.47,1.61,1.61,0,0,1,1.61,1.61ZM383,140.7h-2V125.48h2Z"/><path class="cls-1" d="M397.32,140.7h-2V119.61h2Z"/><path class="cls-1" d="M424.92,133.25H411.26a6.34,6.34,0,0,0,1.59,4.25,5.33,5.33,0,0,0,4.13,1.79,6,6,0,0,0,4.12-1.48,9.19,9.19,0,0,0,1.66-2.16l1.65.87a8,8,0,0,1-4.27,4.06,8.23,8.23,0,0,1-3,.52,7.64,7.64,0,0,1-5.67-2.26,7.75,7.75,0,0,1-2.25-5.69A8.14,8.14,0,0,1,411,128a7.26,7.26,0,0,1,6-2.88,7.49,7.49,0,0,1,6.21,3A8.26,8.26,0,0,1,424.92,133.25Zm-2.14-1.71a5.63,5.63,0,0,0-3.12-4,6.1,6.1,0,0,0-2.59-.57,5.59,5.59,0,0,0-3.85,1.43,6.47,6.47,0,0,0-1.78,3.13Z"/><path class="cls-1" d="M444.83,136.61a4.26,4.26,0,0,1-1.33,3.21,4.55,4.55,0,0,1-3.27,1.27,5.4,5.4,0,0,1-4.49-2.15l1.23-1.4a4.27,4.27,0,0,0,3.17,1.68,3,3,0,0,0,2-.72,2.27,2.27,0,0,0,.86-1.81,2.47,2.47,0,0,0-1-1.94,11.86,11.86,0,0,0-2-1.17,8.86,8.86,0,0,1-2.47-1.72,3.89,3.89,0,0,1-1.06-2.74,3.8,3.8,0,0,1,1.19-2.9,4.18,4.18,0,0,1,3-1.13,6.19,6.19,0,0,1,4.22,2.06l-1.26,1.3a4.52,4.52,0,0,0-3.06-1.51,2.39,2.39,0,0,0-1.61.6,1.88,1.88,0,0,0-.7,1.49q0,1.5,2.9,3a10.07,10.07,0,0,1,2.6,1.76A3.93,3.93,0,0,1,444.83,136.61Z"/></svg>